<?xml version="1.0" encoding="utf-8"?>
<!-- Generator: Adobe Illustrator 23.0.3, SVG Export Plug-In . SVG Version: 6.00 Build 0)  -->
<svg version="1.1" id="Laag_1" xmlns="http://www.w3.org/2000/svg" xmlns:xlink="http://www.w3.org/1999/xlink" x="0px" y="0px"
	 viewBox="0 0 500 500" style="enable-background:new 0 0 500 500;" xml:space="preserve">
<style type="text/css">
	.st0{fill:#FFFFFF;}
</style>
<g transform="matrix(15.974442, 0, 0, 15.822784, -985.623108, 6.329113)">
	<path class="st0" d="M91.3,12.3l-10.9-11c-1.7-1.7-4.5-1.7-6.1,0l-10.9,11c-1.7,1.7-1.7,4.5,0,6.2l10.9,11c1.7,1.7,4.5,1.7,6.1,0
		l10.9-11C93,16.8,93,14,91.3,12.3z M77.5,25.6l-3.7-3.7l2.3-2.3l1.6,1.6l5.5-5.5l-5.6-5.6l-1.3,1.3L74,9.2l3.5-3.5l9.9,9.9
		L77.5,25.6z"/>
</g>
</svg>
